<svg width="40" height="39" viewBox="0 0 40 39" fill="none" xmlns="http://www.w3.org/2000/svg">
<g clip-path="url(#clip0_20_354)">
<path fill-rule="evenodd" clip-rule="evenodd" d="M0.871948 4.36808C0 6.07937 0 8.31958 0 12.8V18.0333C0 22.5138 0 24.754 0.871948 26.4653C1.63893 27.9706 2.86278 29.1944 4.36808 29.9614C5.3181 30.4454 6.43113 30.6608 7.99996 30.7566V39L20.7037 30.8333H27.2C31.6804 30.8333 33.9206 30.8333 35.6319 29.9614C37.1372 29.1944 38.3611 27.9706 39.1281 26.4653C40 24.754 40 22.5138 40 18.0333V12.8C40 8.31958 40 6.07937 39.1281 4.36808C38.3611 2.86278 37.1372 1.63893 35.6319 0.871948C33.9206 0 31.6804 0 27.2 0H12.8C8.31958 0 6.07937 0 4.36808 0.871948C2.86278 1.63893 1.63893 2.86278 0.871948 4.36808ZM26.9394 10.0608C27.5252 9.47504 27.5252 8.5253 26.9394 7.93951C26.3536 7.35373 25.4039 7.35373 24.8181 7.93951L19.3787 13.3789L14.0607 8.06078C13.4749 7.47499 12.5251 7.47499 11.9393 8.06078C11.3536 8.64657 11.3536 9.59631 11.9393 10.1821L17.2574 15.5002L12.0902 20.6674C11.5044 21.2532 11.5044 22.203 12.0902 22.7888C12.676 23.3745 13.6257 23.3745 14.2115 22.7888L19.3787 17.6215L24.6673 22.91C25.2531 23.4958 26.2028 23.4958 26.7886 22.91C27.3744 22.3242 27.3744 21.3745 26.7886 20.7887L21.5001 15.5002L26.9394 10.0608Z" fill="#F4F4F4"/>
</g>
<defs>
<clipPath id="clip0_20_354">
<rect width="40" height="39" fill="white"/>
</clipPath>
</defs>
</svg>
