<svg width="40" height="36" viewBox="0 0 40 36" fill="none" xmlns="http://www.w3.org/2000/svg">
<path d="M19.044 35.943C18.6827 35.9408 18.3265 35.858 18.0014 35.7005C17.6307 35.4821 17.3342 35.1572 17.1505 34.7681C16.9667 34.379 16.9042 33.9436 16.9711 33.5185V25.3967L3.84275 35.4338C3.49426 35.7097 3.07472 35.8812 2.63275 35.9284C2.19078 35.9756 1.74448 35.8966 1.34558 35.7005C0.93981 35.4989 0.598658 35.1876 0.360827 34.8019C0.122995 34.4163 -0.00199873 33.9716 2.41701e-05 33.5185V4.42534C-0.00199873 3.97223 0.122995 3.52763 0.360827 3.14195C0.598658 2.75628 0.93981 2.44497 1.34558 2.24334C1.74412 2.04582 2.1907 1.966 2.63298 2.01323C3.07527 2.06046 3.49492 2.2328 3.84275 2.51003L16.9711 12.5351V4.42534C16.9068 4.00213 16.9705 3.56937 17.1541 3.1827C17.3378 2.79602 17.6328 2.4731 18.0014 2.25547C18.4 2.05794 18.8466 1.97812 19.2888 2.02535C19.7311 2.07259 20.1508 2.24492 20.4986 2.52215L39.0698 17.0688C39.3596 17.2955 39.5939 17.5853 39.7551 17.9161C39.9162 18.2469 40 18.61 40 18.978C40 19.346 39.9162 19.7091 39.7551 20.0399C39.5939 20.3707 39.3596 20.6605 39.0698 20.8872L20.4986 35.4338C20.082 35.7573 19.5713 35.936 19.044 35.943Z" fill="#F4F4F4"/>
</svg>
