<svg width="40" height="36" viewBox="0 0 40 36" fill="none" xmlns="http://www.w3.org/2000/svg">
<path fill-rule="evenodd" clip-rule="evenodd" d="M9 1C6.79086 1 5 2.79086 5 5V32C5 34.2091 6.79086 36 9 36H31C33.2091 36 35 34.2091 35 32V5C35 2.79086 33.2091 1 31 1H9ZM11.5 9C10.6716 9 10 9.67157 10 10.5C10 11.3284 10.6716 12 11.5 12H28.5C29.3284 12 30 11.3284 30 10.5C30 9.67157 29.3284 9 28.5 9H11.5ZM10 18.5C10 17.6716 10.6716 17 11.5 17H28.5C29.3284 17 30 17.6716 30 18.5C30 19.3284 29.3284 20 28.5 20H11.5C10.6716 20 10 19.3284 10 18.5ZM10 26.5C10 25.6716 10.6716 25 11.5 25H22.5C23.3284 25 24 25.6716 24 26.5C24 27.3284 23.3284 28 22.5 28H11.5C10.6716 28 10 27.3284 10 26.5Z" fill="#F4F4F4"/>
</svg>
